<?xml version="1.0" encoding="utf-8"?>
<!-- Generator: Adobe Illustrator 22.1.0, SVG Export Plug-In . SVG Version: 6.00 Build 0)  -->
<svg version="1.1" id="Layer_1" xmlns="http://www.w3.org/2000/svg" xmlns:xlink="http://www.w3.org/1999/xlink" x="0px" y="0px"
	 viewBox="0 0 425.2 150" style="enable-background:new 0 0 425.2 150;" xml:space="preserve">
<style type="text/css">
	.st0{clip-path:url(#SVGID_2_);}
	.st1{clip-path:url(#SVGID_4_);fill:#F19034;}
	.st2{clip-path:url(#SVGID_6_);}
	.st3{clip-path:url(#SVGID_8_);fill:#F19034;}
	.st4{clip-path:url(#SVGID_10_);}
	.st5{clip-path:url(#SVGID_12_);fill:#E14598;}
	.st6{clip-path:url(#SVGID_14_);}
	.st7{clip-path:url(#SVGID_16_);fill:#E14598;}
	.st8{clip-path:url(#SVGID_18_);}
	.st9{clip-path:url(#SVGID_20_);fill:#8ACAD8;}
	.st10{clip-path:url(#SVGID_22_);}
	.st11{clip-path:url(#SVGID_24_);fill:#8ACAD8;}
	.st12{clip-path:url(#SVGID_26_);}
	.st13{clip-path:url(#SVGID_28_);fill:#7DE4AD;}
	.st14{clip-path:url(#SVGID_30_);}
	.st15{clip-path:url(#SVGID_32_);fill:#7DE4AD;}
	.st16{clip-path:url(#SVGID_34_);}
	.st17{clip-path:url(#SVGID_36_);fill:#E53C3C;}
	.st18{clip-path:url(#SVGID_38_);}
	.st19{clip-path:url(#SVGID_40_);fill:#E53C3C;}
	.st20{clip-path:url(#SVGID_42_);}
	.st21{clip-path:url(#SVGID_44_);fill:#EFD154;}
	.st22{clip-path:url(#SVGID_46_);}
	.st23{clip-path:url(#SVGID_48_);fill:#EFD154;}
	.st24{clip-path:url(#SVGID_50_);}
	.st25{clip-path:url(#SVGID_52_);fill:#E14598;}
	.st26{clip-path:url(#SVGID_54_);}
	.st27{clip-path:url(#SVGID_56_);fill:#E14598;}
</style>
<g>
	<g>
		<defs>
			<path id="SVGID_1_" d="M62.2,67.5c2.2,2.5,4.2,5.1,5.8,8c1.6,2.9,2.8,5.8,3.6,8.9c0.8,3,1.1,6.1,0.9,9.2
				c-0.2,3.1-0.9,6.1-2.2,8.9c-0.9,2.1-2.2,3.8-3.8,5.3c-1.6,1.5-3.4,2.7-5.4,3.7c-2,1-4.1,1.7-6.4,2.1c-2.2,0.5-4.5,0.7-6.7,0.7
				c-3,0-6.2-0.4-9.3-1.3c-3.2-0.9-6.3-2.1-9.3-3.7c-3-1.6-5.8-3.5-8.3-5.8c-2.6-2.3-4.8-4.9-6.7-7.7l11.8-11.4
				c1.2,1.7,2.7,3.3,4.3,4.8c1.6,1.5,3.3,2.7,5.1,3.8c1.8,1.1,3.6,2,5.4,2.6c1.8,0.6,3.5,1,5.1,1.1c1.4,0.1,2.7,0,3.7-0.5
				c1-0.4,1.8-1,2.4-1.7c0.6-0.7,1-1.6,1.2-2.6c0.2-1,0.3-2,0.3-3.1c0-1.1-0.2-2.1-0.5-3.1c-0.3-1-0.7-2-1.2-2.8
				c-1-1.8-2.5-3.6-4.3-5.3c-1.8-1.8-3.9-3.6-6.1-5.4c-2.2-1.8-4.5-3.6-6.9-5.5c-2.4-1.8-4.7-3.7-6.9-5.6c-2.2-1.9-4.2-3.9-6-5.9
				c-1.8-2-3.2-4.1-4.1-6.2c-1.6-3.6-2.3-7.2-2.2-10.9c0.2-3.7,1.1-7.1,2.9-10.3c1.4-2.5,3.1-4.7,5-6.5c2-1.8,4.2-3.2,6.6-4.3
				c2.4-1.1,4.9-1.8,7.6-2.2c2.7-0.4,5.3-0.4,8-0.2c2.7,0.3,5.4,0.9,8,1.8c2.6,0.9,5,2.1,7.3,3.6c1,0.7,2.2,1.5,3.5,2.6
				c1.3,1.1,2.6,2.2,4,3.4c1.3,1.2,2.5,2.4,3.7,3.6c1.1,1.2,2,2.2,2.5,3.1L60.2,43.4c-1.6-2.3-3.3-4.2-5.1-5.7
				c-1.8-1.5-3.6-2.8-5.4-3.7c-1.8-0.9-3.6-1.5-5.3-1.9c-1.7-0.3-3.2-0.4-4.6-0.2c-1.4,0.2-2.6,0.6-3.5,1.3c-1,0.7-1.6,1.6-2,2.6
				c-0.4,1.4-0.3,2.8,0.3,4.3c0.6,1.5,1.6,3,3,4.6c1.4,1.6,3.1,3.2,5,5c2,1.7,4,3.5,6.3,5.4c2.2,1.9,4.5,3.8,6.7,5.9
				C58,63.1,60.2,65.2,62.2,67.5"/>
		</defs>
		<clipPath id="SVGID_2_">
			<use xlink:href="#SVGID_1_"  style="overflow:visible;"/>
		</clipPath>
		<g class="st0">
			<defs>
				<rect id="SVGID_3_" x="-161.7" y="-95.7" width="750" height="394"/>
			</defs>
			<clipPath id="SVGID_4_">
				<use xlink:href="#SVGID_3_"  style="overflow:visible;"/>
			</clipPath>
			<rect x="4.3" y="4.3" class="st1" width="80" height="120"/>
		</g>
	</g>
	<g>
		<defs>
			<path id="SVGID_5_" d="M47.9,120.3c-3.4,0-7-0.5-10.6-1.4c-3.6-0.9-7-2.3-10.3-4c-3.3-1.7-6.4-3.9-9.3-6.4
				c-2.9-2.5-5.4-5.4-7.5-8.5l-1.8-2.7l17.8-16.8l2.7,3.7c1.1,1.5,2.4,2.9,3.8,4.2c1.5,1.3,3.1,2.5,4.7,3.4c1.6,0.9,3.2,1.7,4.7,2.2
				c1.5,0.5,2.9,0.8,4.2,0.9c1.1,0.1,1.7-0.1,2-0.2c0.4-0.2,0.7-0.3,0.8-0.5c0.2-0.3,0.4-0.7,0.5-1.1c0.2-0.6,0.2-1.3,0.2-2
				c0-0.7-0.2-1.4-0.4-2.1c-0.2-0.8-0.5-1.4-0.9-2c-0.9-1.5-2.2-3-3.8-4.5c-1.8-1.7-3.8-3.4-6-5.2c-2.2-1.8-4.6-3.6-7-5.4
				c-2.5-1.9-5-3.8-7.3-5.8c-2.3-2-4.5-4.1-6.4-6.2c-2.1-2.3-3.7-4.7-4.9-7.2c-1.9-4.2-2.8-8.5-2.6-12.8c0.2-4.3,1.4-8.3,3.4-12
				c1.6-2.9,3.6-5.5,6-7.6c2.3-2.1,4.9-3.7,7.8-5c2.8-1.2,5.7-2.1,8.8-2.5c3-0.4,6.1-0.5,9.2-0.2c3.1,0.3,6.1,1,9.1,2
				c3,1,5.8,2.4,8.4,4c1.1,0.7,2.4,1.7,3.9,2.8c1.4,1.1,2.8,2.3,4.2,3.6c1.4,1.3,2.7,2.6,3.9,3.8c1.3,1.4,2.3,2.6,3,3.6l2.1,3
				L59.7,50.9l-2.4-3.3c-1.4-2-3-3.7-4.5-5c-1.6-1.3-3.2-2.4-4.7-3.2c-1.5-0.7-3-1.3-4.4-1.5c-1.3-0.2-2.5-0.3-3.5-0.2
				c-0.8,0.1-1.4,0.3-1.9,0.7c-0.4,0.2-0.4,0.4-0.5,0.6c-0.1,0.3-0.2,0.8,0.2,1.6c0.5,1.1,1.3,2.3,2.4,3.6c1.3,1.5,2.9,3,4.8,4.6
				c2,1.7,4.1,3.5,6.3,5.4c2.3,1.9,4.7,3.9,7,6c2.4,2.1,4.8,4.4,7,6.7l0,0c2.5,2.7,4.7,5.6,6.4,8.7c1.8,3.2,3.2,6.5,4.1,9.8
				c0.9,3.4,1.2,6.9,1,10.4c-0.2,3.6-1.1,7.1-2.6,10.4c-1.2,2.6-2.8,4.8-4.9,6.6c-1.9,1.7-4.1,3.2-6.5,4.3c-2.3,1.1-4.8,1.9-7.5,2.4
				C53,120.1,50.5,120.3,47.9,120.3z M18.7,98.3c1.3,1.6,2.7,3,4.2,4.4c2.4,2.1,5,3.9,7.8,5.3c2.8,1.5,5.7,2.6,8.7,3.4
				c2.9,0.8,5.8,1.2,8.6,1.2c2,0,4-0.2,6.1-0.6c2-0.4,3.9-1,5.6-1.8c1.7-0.8,3.2-1.8,4.6-3c1.3-1.1,2.2-2.5,3-4.1
				c1.1-2.4,1.8-5,1.9-7.6c0.2-2.7-0.1-5.4-0.8-8c-0.7-2.7-1.8-5.4-3.3-7.9c-1.5-2.6-3.3-5.1-5.4-7.3c-2-2.2-4.2-4.2-6.4-6.2
				c-2.3-2-4.6-4-6.8-5.8c-2.3-1.9-4.5-3.7-6.5-5.5c-2.1-1.8-4-3.6-5.5-5.3c-1.7-1.9-3-3.8-3.8-5.6c-1-2.3-1.2-4.7-0.4-7
				c0.6-1.9,1.8-3.4,3.5-4.6c1.5-1,3.3-1.7,5.4-2c1.9-0.3,3.9-0.2,6.1,0.2c2.1,0.4,4.2,1.1,6.4,2.2c2.1,1.1,4.3,2.5,6.3,4.2
				c1.1,1,2.2,2,3.3,3.2l8.1-6.1c-1-1-2.2-2.1-3.4-3.2c-1.3-1.2-2.6-2.3-3.9-3.3c-1.2-1-2.3-1.8-3.2-2.4c-2.1-1.3-4.3-2.4-6.7-3.2
				c-2.4-0.8-4.8-1.3-7.3-1.6c-2.5-0.2-4.9-0.2-7.3,0.1c-2.3,0.3-4.6,1-6.7,1.9c-2.1,0.9-4,2.1-5.7,3.7c-1.7,1.5-3.2,3.4-4.3,5.5
				c-1.5,2.7-2.3,5.6-2.5,8.7c-0.2,3.1,0.5,6.1,1.9,9.2c0.8,1.8,2,3.5,3.6,5.2c1.7,1.9,3.7,3.8,5.8,5.6c2.2,1.9,4.5,3.7,6.8,5.5
				c2.5,1.9,4.9,3.7,7.2,5.5c2.4,1.9,4.5,3.8,6.5,5.6c2.1,2,3.9,4.1,5.1,6.2l0,0.1c0.6,1.1,1.1,2.3,1.5,3.6c0.4,1.4,0.7,2.8,0.7,4.2
				c0,1.4-0.1,2.8-0.4,4.1c-0.4,1.5-1,2.9-2,4.1c-1,1.3-2.4,2.3-4.1,3c-1.6,0.6-3.5,0.9-5.6,0.7c-2-0.1-4.1-0.6-6.3-1.3
				c-2.1-0.7-4.2-1.7-6.3-3c-2-1.2-4-2.6-5.8-4.2c-0.7-0.6-1.4-1.3-2.1-2L18.7,98.3z"/>
		</defs>
		<clipPath id="SVGID_6_">
			<use xlink:href="#SVGID_5_"  style="overflow:visible;"/>
		</clipPath>
		<g class="st2">
			<defs>
				<rect id="SVGID_7_" x="-161.7" y="-95.7" width="750" height="394"/>
			</defs>
			<clipPath id="SVGID_8_">
				<use xlink:href="#SVGID_7_"  style="overflow:visible;"/>
			</clipPath>
			<rect x="-1.7" y="2.3" class="st3" width="92" height="128"/>
		</g>
	</g>
	<g>
		<defs>
			<polygon id="SVGID_9_" points="104.3,112.3 86.3,112.3 87,44.3 104.2,44.3 			"/>
		</defs>
		<clipPath id="SVGID_10_">
			<use xlink:href="#SVGID_9_"  style="overflow:visible;"/>
		</clipPath>
		<g class="st4">
			<defs>
				<rect id="SVGID_11_" x="-161.7" y="-95.7" width="750" height="394"/>
			</defs>
			<clipPath id="SVGID_12_">
				<use xlink:href="#SVGID_11_"  style="overflow:visible;"/>
			</clipPath>
			<rect x="76.3" y="34.3" class="st5" width="38" height="88"/>
		</g>
	</g>
	<g>
		<defs>
			<path id="SVGID_13_" d="M110.3,116.3h-28l0.9-76h26.9L110.3,116.3z M90.4,108.6h11.9L102.1,48H91.1L90.4,108.6z"/>
		</defs>
		<clipPath id="SVGID_14_">
			<use xlink:href="#SVGID_13_"  style="overflow:visible;"/>
		</clipPath>
		<g class="st6">
			<defs>
				<rect id="SVGID_15_" x="-161.7" y="-95.7" width="750" height="394"/>
			</defs>
			<clipPath id="SVGID_16_">
				<use xlink:href="#SVGID_15_"  style="overflow:visible;"/>
			</clipPath>
			<rect x="72.3" y="30.3" class="st7" width="48" height="96"/>
		</g>
	</g>
	<g>
		<defs>
			<path id="SVGID_17_" d="M187.6,38.3c0.1,6.8,0.3,13.5,0.4,20.1c0.2,6.6,0.3,13,0.3,19.3c0,6.3-0.1,12.4-0.4,18.4
				c-0.3,6-0.9,11.8-1.7,17.4c-0.6,4.1-1.9,7.8-3.8,11c-1.9,3.2-4.3,5.8-7.2,7.9c-2.9,2.1-6.2,3.7-9.8,4.7c-3.7,1-7.6,1.5-11.8,1.4
				c-4.2-0.1-7.9-0.5-11.1-1.1c-3.2-0.6-6-1.3-8.3-2.2c-2.3-0.9-4.3-1.8-5.9-2.8c-1.6-1-2.8-2-3.8-3l9.7-15.3
				c1.6,1.5,3.5,2.7,5.7,3.8c2.2,1,4.6,1.7,7,2.2c2.4,0.4,4.9,0.5,7.3,0.3c2.4-0.2,4.6-0.8,6.5-1.8c1.9-1,3.5-2.4,4.8-4.2
				c1.3-1.8,1.9-4.2,2-7c-1.9,0.8-3.8,1.5-5.9,1.9c-2.1,0.4-4.3,0.7-6.7,0.7c-4.7,0-8.8-0.6-12.6-1.9c-3.7-1.3-7-3.1-9.8-5.3
				c-2.8-2.2-5.1-4.9-6.9-7.9c-1.8-3-3.2-6.2-4.1-9.6c-0.9-3.4-1.3-6.9-1.3-10.4c0-3.6,0.5-7.1,1.4-10.5c0.9-3.4,2.3-6.6,4.2-9.6
				c1.8-3,4.1-5.7,6.9-7.9c2.7-2.3,5.9-4.1,9.6-5.4c3.6-1.3,7.7-2,12.2-2c2.6,0,5.1,0.3,7.3,0.8c2.3,0.5,4.4,1.3,6.3,2.2V42v-0.7
				c0-0.4,0-0.7,0-1.1c0-0.4,0-0.8,0.1-1.1c0-0.3,0.1-0.6,0.2-0.7H187.6z M152.5,57.8c-2.5,0.1-4.8,0.7-6.7,1.8
				c-1.9,1-3.5,2.4-4.7,4c-1.3,1.6-2.2,3.4-2.8,5.4c-0.6,2-0.9,4-0.9,6.1c0,2.1,0.4,4.1,1.1,6.1c0.7,2,1.7,3.7,3,5.3
				c1.3,1.5,3,2.8,5,3.7c2,0.9,4.4,1.4,7,1.4c2.7,0,5-0.5,7-1.5c2-1,3.6-2.3,4.9-3.9c1.3-1.6,2.2-3.5,2.9-5.6
				c0.6-2.1,0.9-4.2,0.8-6.3c-0.1-2.1-0.5-4.2-1.2-6.3c-0.7-2.1-1.8-3.9-3.2-5.4c-1.4-1.6-3.1-2.8-5.1-3.7
				C157.5,58,155.2,57.6,152.5,57.8z"/>
		</defs>
		<clipPath id="SVGID_18_">
			<use xlink:href="#SVGID_17_"  style="overflow:visible;"/>
		</clipPath>
		<g class="st8">
			<defs>
				<rect id="SVGID_19_" x="-161.7" y="-95.7" width="750" height="394"/>
			</defs>
			<clipPath id="SVGID_20_">
				<use xlink:href="#SVGID_19_"  style="overflow:visible;"/>
			</clipPath>
			<rect x="110.3" y="28.3" class="st9" width="88" height="120"/>
		</g>
	</g>
	<g>
		<defs>
			<path id="SVGID_21_" d="M153.8,140.3c-0.4,0-0.8,0-1.3,0c-4.4-0.1-8.3-0.5-11.7-1.1c-3.4-0.6-6.4-1.4-8.9-2.3
				c-2.5-0.9-4.7-1.9-6.4-3c-1.7-1.1-3.2-2.2-4.3-3.3l-1.3-1.3l12.5-19.2l2.1,2c1.4,1.3,3.1,2.4,5.1,3.3c2.1,0.9,4.3,1.6,6.6,2
				c2.3,0.4,4.5,0.5,6.7,0.3c2.1-0.2,4-0.7,5.7-1.6c1.6-0.8,2.9-1.9,4-3.5c0.4-0.6,0.7-1.3,1-2c-0.8,0.2-1.6,0.4-2.4,0.6
				c-2.3,0.5-4.7,0.7-7.2,0.8c-5,0-9.6-0.6-13.6-2c-4-1.4-7.6-3.3-10.6-5.6c-3-2.4-5.6-5.2-7.6-8.4c-2-3.2-3.5-6.6-4.4-10.1
				c-1-3.5-1.4-7.2-1.4-11c0-3.8,0.5-7.5,1.5-11c1-3.6,2.5-7,4.5-10.1c2-3.2,4.5-6.1,7.5-8.5c3-2.4,6.5-4.3,10.5-5.7
				c3.9-1.4,8.4-2.1,13.3-2.1c2.8,0,5.5,0.3,8,0.8c1.2,0.3,2.4,0.6,3.6,1c0,0,0,0,0,0c0.1-0.5,0.2-1.2,0.6-1.7l0.7-1h23.1l0,2.3
				c0.1,6.7,0.3,13.4,0.4,19.9c0.2,6.5,0.3,13,0.3,19.2c0,6.2-0.2,12.4-0.4,18.4c-0.3,6-0.9,11.9-1.7,17.5
				c-0.7,4.4-2.1,8.3-4.1,11.7c-2.1,3.4-4.7,6.3-7.9,8.5c-3.2,2.3-6.8,3.9-10.8,5C161.7,139.8,157.8,140.3,153.8,140.3z
				 M126.2,128.5c0.6,0.5,1.3,0.9,2,1.4c1.4,0.9,3.3,1.8,5.5,2.6c2.2,0.8,5,1.5,8.1,2.1c3.1,0.6,6.8,0.9,10.9,1
				c4,0.1,7.8-0.3,11.3-1.3c3.4-0.9,6.5-2.4,9.2-4.3c2.6-1.9,4.9-4.3,6.6-7.1c1.8-2.9,2.9-6.2,3.5-10c0.8-5.4,1.4-11.2,1.7-17
				c0.3-5.9,0.4-12,0.4-18.1c0-6.2-0.1-12.6-0.3-19.1c-0.2-5.7-0.3-11.6-0.4-17.6h-14.8c0,0.2,0,0.4,0,0.6v4.8l-3.5-1.6
				c-1.8-0.9-3.8-1.5-5.9-2c-2.1-0.5-4.4-0.7-6.9-0.7c-4.3,0-8.2,0.6-11.6,1.8c-3.4,1.2-6.5,2.9-9,4.9c-2.6,2.1-4.8,4.5-6.5,7.3
				c-1.7,2.8-3.1,5.8-4,9c-0.9,3.1-1.4,6.4-1.4,9.8c0,3.3,0.4,6.6,1.3,9.8c0.8,3.1,2.2,6.1,3.9,8.9c1.7,2.7,3.9,5.2,6.5,7.2
				c2.6,2,5.7,3.7,9.2,4.9c3.5,1.2,7.5,1.8,12,1.7c2.2,0,4.3-0.3,6.3-0.7c1.9-0.4,3.8-1,5.5-1.7l3.6-1.6l-0.2,3.8
				c-0.1,3.3-1,6-2.5,8.2c-1.5,2.1-3.4,3.8-5.7,5c-2.2,1.1-4.8,1.8-7.5,2.1c-2.6,0.2-5.4,0.1-8-0.4c-2.7-0.5-5.3-1.3-7.7-2.3
				c-1.5-0.7-2.9-1.5-4.2-2.4L126.2,128.5z M152.5,93.9c-3.1,0-5.9-0.5-8.2-1.6c-2.3-1.1-4.3-2.5-5.9-4.3c-1.5-1.8-2.7-3.8-3.5-6
				c-0.8-2.2-1.2-4.5-1.2-6.8c0-2.3,0.3-4.6,1-6.8c0.7-2.2,1.8-4.3,3.3-6.1c1.5-1.9,3.3-3.4,5.6-4.6c2.2-1.2,4.9-1.9,7.8-2l0,0
				c3.1-0.2,5.9,0.3,8.3,1.3c2.4,1,4.4,2.4,6.1,4.3c1.6,1.8,2.8,3.8,3.7,6.2c0.8,2.3,1.3,4.6,1.4,7c0.1,2.4-0.2,4.7-0.9,7
				c-0.7,2.3-1.8,4.5-3.3,6.3c-1.5,1.9-3.5,3.4-5.8,4.5C158.3,93.3,155.6,93.9,152.5,93.9z M151.6,60.4c-2.2,0.1-4.1,0.6-5.7,1.5
				c-1.6,0.9-3,2-4.1,3.3c-1.1,1.4-1.9,2.9-2.5,4.6c-0.6,1.7-0.8,3.5-0.8,5.3c0,1.8,0.3,3.6,0.9,5.3c0.6,1.7,1.5,3.2,2.6,4.5
				c1.1,1.3,2.6,2.3,4.3,3.1c1.7,0.8,3.8,1.2,6.1,1.2c2.3,0,4.3-0.4,6-1.2c1.7-0.8,3.1-1.9,4.2-3.2c1.1-1.4,2-3,2.5-4.7
				c0.6-1.8,0.8-3.7,0.7-5.5c-0.1-1.9-0.4-3.7-1.1-5.5c-0.6-1.7-1.6-3.3-2.8-4.6c-1.2-1.3-2.6-2.3-4.4-3.1
				C156,60.5,153.9,60.2,151.6,60.4z"/>
		</defs>
		<clipPath id="SVGID_22_">
			<use xlink:href="#SVGID_21_"  style="overflow:visible;"/>
		</clipPath>
		<g class="st10">
			<defs>
				<rect id="SVGID_23_" x="-161.7" y="-95.7" width="750" height="394"/>
			</defs>
			<clipPath id="SVGID_24_">
				<use xlink:href="#SVGID_23_"  style="overflow:visible;"/>
			</clipPath>
			<rect x="106.3" y="26.3" class="st11" width="94" height="124"/>
		</g>
	</g>
	<g>
		<defs>
			<path id="SVGID_25_" d="M219.3,47.7c0.6-0.3,1.2-0.6,1.8-0.8c0.6-0.3,1.2-0.5,1.8-0.8c6.1-2.4,11.4-3.7,16-3.8
				c4.6-0.1,8.5,1,11.7,3.3c3.2,2.3,5.8,5.9,7.6,10.7c1.8,4.8,3,11,3.5,18.5c0.2,2.6,0.3,5.4,0.4,8.3c0.1,3,0.2,6,0.2,9.2
				c0,3.2,0,6.5-0.1,9.9c-0.1,3.4-0.2,6.8-0.3,10.2h-18.1c0.1-3.3,0.3-6.6,0.4-9.9c0.1-3.3,0.2-6.4,0.3-9.4c0.1-3,0.1-5.8,0.1-8.4
				c0-2.6-0.1-4.9-0.2-6.9c-0.2-3.5-0.6-6.5-1.3-8.9c-0.6-2.4-1.6-4.3-3-5.6c-1.4-1.3-3.1-2-5.3-2.1c-2.2-0.1-4.9,0.5-8.2,1.8
				c-2.8,1-5.2,2.3-7.2,3.9l0.3,45.7h-19.4c0-1.5,0.1-3.6,0.1-6.3c0-2.6,0-5.6,0-8.9c0-3.3,0-6.8,0-10.6c0-3.7,0-7.5,0-11.3
				c0-3.8,0-7.4,0-11c0-3.6,0-6.8,0-9.8c0-3,0-5.5,0.1-7.6c0-2.1,0-3.6,0.1-4.5h18.5L219.3,47.7z"/>
		</defs>
		<clipPath id="SVGID_26_">
			<use xlink:href="#SVGID_25_"  style="overflow:visible;"/>
		</clipPath>
		<g class="st12">
			<defs>
				<rect id="SVGID_27_" x="-161.7" y="-95.7" width="750" height="394"/>
			</defs>
			<clipPath id="SVGID_28_">
				<use xlink:href="#SVGID_27_"  style="overflow:visible;"/>
			</clipPath>
			<rect x="190.3" y="32.3" class="st13" width="82" height="90"/>
		</g>
	</g>
	<g>
		<defs>
			<path id="SVGID_29_" d="M267.7,116.3h-25.9l0.2-4c0.1-3.3,0.3-6.6,0.4-9.9c0.1-3.3,0.2-6.4,0.3-9.4c0.1-3,0.1-5.8,0.1-8.3
				c0-2.6-0.1-4.8-0.2-6.8c-0.2-3.2-0.6-6-1.2-8.2c-0.5-1.8-1.1-3.1-2-3.9c-0.4-0.4-1.1-0.9-2.7-1c-1.1,0-3.2,0.2-6.6,1.5
				c-1.8,0.7-3.3,1.4-4.7,2.3l0.3,47.7h-27.4l0.1-3.9c0-1.6,0.1-3.7,0.1-6.2c0-2.7,0-5.7,0-9c0-3.3,0-6.9,0-10.6c0-3.8,0-7.5,0-11.3
				c0-3.8,0-7.4,0-11c0-3.6,0-6.9,0-9.8c0-3,0-5.5,0.1-7.7c0-2.2,0-3.7,0.1-4.7l0.2-3.7h26l0.1,3.5c5.8-2.2,11.1-3.3,15.8-3.4
				c5.4-0.1,10.2,1.2,14.1,4c3.8,2.8,6.9,7,9,12.5c2,5.2,3.2,11.8,3.8,19.6c0.2,2.6,0.3,5.5,0.4,8.5c0.1,3,0.2,6.1,0.2,9.3
				c0,3.2,0,6.6-0.1,10c-0.1,3.4-0.2,6.9-0.3,10.3L267.7,116.3z M249.9,108.6h10.3c0.1-2.1,0.1-4.3,0.2-6.4c0.1-3.3,0.1-6.6,0.1-9.8
				c0-3.1-0.1-6.2-0.2-9.2c-0.1-2.9-0.2-5.7-0.4-8.2c-0.5-7.1-1.6-13-3.3-17.5c-1.6-4.1-3.7-7.1-6.3-9c-2.5-1.8-5.6-2.7-9.4-2.6
				c-4.1,0.1-9,1.3-14.6,3.5c-0.6,0.2-1.1,0.5-1.7,0.7c-0.5,0.2-1.1,0.5-1.6,0.7l-5.5,2.7l-0.2-7.7h-10.9c0,0.2,0,0.5,0,0.7
				c0,2.2,0,4.7-0.1,7.7c0,3,0,6.2,0,9.8c0,3.6,0,7.3,0,11.1c0,3.8,0,7.5,0,11.3c0,3.8,0,7.3,0,10.6c0,3.3,0,6.3,0,9
				c0,0.9,0,1.7,0,2.5h11.6l-0.3-43.9l1.5-1.2c2.3-1.8,5.1-3.3,8.2-4.4c3.8-1.5,7-2.1,9.7-2c3.2,0.1,5.8,1.2,7.9,3.2
				c1.9,1.8,3.2,4.3,4,7.5c0.7,2.7,1.2,5.9,1.4,9.7c0.1,2.1,0.2,4.5,0.2,7.2c0,2.6,0,5.5-0.1,8.6c-0.1,3-0.2,6.2-0.3,9.5
				C250.1,104.7,250,106.6,249.9,108.6z"/>
		</defs>
		<clipPath id="SVGID_30_">
			<use xlink:href="#SVGID_29_"  style="overflow:visible;"/>
		</clipPath>
		<g class="st14">
			<defs>
				<rect id="SVGID_31_" x="-161.7" y="-95.7" width="750" height="394"/>
			</defs>
			<clipPath id="SVGID_32_">
				<use xlink:href="#SVGID_31_"  style="overflow:visible;"/>
			</clipPath>
			<rect x="188.3" y="28.3" class="st15" width="90" height="98"/>
		</g>
	</g>
	<g>
		<defs>
			<path id="SVGID_33_" d="M340.3,112.1H322V108c-4.3,2.8-8.9,4.3-13.9,4.4c-3.5,0-6.8-0.4-9.7-1.3c-2.9-0.9-5.5-2.2-7.9-3.8
				c-2.3-1.6-4.4-3.5-6.1-5.7c-1.7-2.2-3.2-4.6-4.4-7.1c-1.2-2.6-2.1-5.2-2.7-8c-0.6-2.8-1-5.6-1.1-8.5c-0.1-3,0.1-6,0.6-9
				c0.5-3,1.4-5.9,2.5-8.6c1.2-2.7,2.6-5.3,4.4-7.6c1.8-2.4,3.9-4.4,6.4-6.1c2.4-1.7,5.2-3.1,8.2-4c3.1-1,6.4-1.5,10.1-1.5
				c2.7,0,5.2,0.3,7.5,0.9c2.3,0.6,4.4,1.4,6.4,2.5v-0.8c0-0.4,0-0.8,0-1.3c0-0.4,0-0.9,0-1.2v-0.7H340L340.3,112.1z M306.6,58.6
				c-2.1,0.1-3.9,0.6-5.6,1.5c-1.7,1-3.1,2.3-4.2,3.9c-1.2,1.7-2.1,3.6-2.7,5.9c-0.6,2.2-0.9,4.7-0.7,7.3c0,1.2,0.2,2.5,0.4,3.8
				c0.3,1.3,0.6,2.7,1.1,4c0.5,1.3,1.1,2.6,1.8,3.8c0.7,1.2,1.6,2.2,2.5,3.2c1,0.9,2.1,1.7,3.3,2.2c1.2,0.6,2.6,0.8,4.1,0.8
				c2.5,0,4.7-0.6,6.6-1.7c1.9-1.1,3.5-2.6,4.8-4.5c1.3-1.8,2.3-3.9,3-6.3c0.7-2.3,1-4.6,1-7c0-2.2-0.3-4.4-1-6.5
				c-0.7-2.1-1.7-3.9-3-5.6c-1.3-1.6-3-2.9-4.9-3.8C311.3,58.9,309.1,58.5,306.6,58.6z"/>
		</defs>
		<clipPath id="SVGID_34_">
			<use xlink:href="#SVGID_33_"  style="overflow:visible;"/>
		</clipPath>
		<g class="st16">
			<defs>
				<rect id="SVGID_35_" x="-161.7" y="-95.7" width="750" height="394"/>
			</defs>
			<clipPath id="SVGID_36_">
				<use xlink:href="#SVGID_35_"  style="overflow:visible;"/>
			</clipPath>
			<rect x="266.3" y="30.3" class="st17" width="84" height="92"/>
		</g>
	</g>
	<g>
		<defs>
			<path id="SVGID_37_" d="M309.8,116.3c-3.8,0-7.3-0.5-10.5-1.4c-3.3-1-6.3-2.4-8.9-4.2c-2.6-1.8-5-3.9-6.9-6.3
				c-1.9-2.4-3.6-5-4.9-7.7c-1.3-2.7-2.3-5.6-3-8.6c-0.7-3-1.1-6-1.2-9c-0.1-3.2,0.1-6.5,0.7-9.7c0.6-3.2,1.5-6.3,2.8-9.3
				c1.3-3,2.9-5.7,5-8.3c2-2.6,4.5-4.8,7.2-6.7c2.8-1.9,5.9-3.4,9.3-4.5c3.4-1.1,7.2-1.6,11.3-1.6c3,0,5.8,0.4,8.4,1
				c1,0.2,2,0.5,2.9,0.8v-2.6h24l0.3,77.7h-24.9V114c-3.5,1.5-7.3,2.3-11.2,2.3C310.1,116.3,309.9,116.3,309.8,116.3 M310.6,45
				c-3.4,0-6.6,0.4-9.5,1.3c-2.8,0.9-5.4,2.1-7.7,3.6c-2.3,1.6-4.2,3.4-5.9,5.5c-1.7,2.1-3.1,4.5-4.2,7c-1.1,2.5-1.9,5.2-2.4,8
				c-0.5,2.8-0.7,5.6-0.6,8.4c0.1,2.6,0.5,5.3,1.1,7.9c0.6,2.6,1.5,5.1,2.6,7.5c1.1,2.3,2.5,4.5,4.1,6.5c1.6,2,3.5,3.7,5.6,5.1
				c2.1,1.4,4.6,2.6,7.3,3.4c2.7,0.8,5.8,1.2,9.1,1.2c4.6-0.1,8.7-1.3,12.6-3.9l4.7-3v6.7h12.8l-0.3-65.9H328c0,0.1,0,0.2,0,0.3v5.8
				l-4.5-2.3c-1.8-1-3.8-1.7-5.9-2.2C315.5,45.3,313.1,45,310.6,45 M308.7,99c-2,0-3.8-0.4-5.5-1.1c-1.6-0.7-3-1.6-4.3-2.7
				c-1.2-1.1-2.3-2.4-3.2-3.8c-0.8-1.3-1.6-2.8-2.1-4.2c-0.6-1.5-1-3-1.3-4.5c-0.3-1.5-0.5-3-0.5-4.3c-0.1-2.9,0.2-5.6,0.9-8.2
				c0.7-2.6,1.8-4.9,3.2-6.8c1.5-2,3.3-3.6,5.4-4.8c2.1-1.2,4.5-1.8,7.1-1.9c3.1-0.2,5.9,0.3,8.3,1.5c2.4,1.1,4.4,2.7,6.1,4.6
				c1.6,1.9,2.9,4.1,3.7,6.5c0.8,2.4,1.2,4.9,1.2,7.4c0,2.6-0.4,5.2-1.2,7.8c-0.8,2.6-2,5-3.5,7.1c-1.6,2.2-3.6,4-5.9,5.3
				C314.7,98.3,311.8,99,308.7,99 M309.5,62.6c-0.3,0-0.5,0-0.8,0l-0.1,0c-1.6,0.1-3.1,0.4-4.4,1.1c-1.3,0.7-2.4,1.7-3.4,3.1
				c-1,1.4-1.8,3-2.3,4.9c-0.5,2-0.8,4.1-0.7,6.4c0,1.1,0.2,2.2,0.4,3.4c0.2,1.2,0.6,2.4,1,3.5c0.4,1.1,1,2.2,1.6,3.3
				c0.6,1,1.3,1.8,2.1,2.5c0.8,0.7,1.6,1.3,2.6,1.7c0.9,0.4,1.9,0.6,3,0.6c2,0,3.8-0.4,5.3-1.3c1.6-0.9,3-2.1,4.1-3.7
				c1.1-1.6,2-3.4,2.6-5.4c0.6-2,0.9-4.1,0.9-6.1c0-1.9-0.3-3.8-0.9-5.5c-0.6-1.7-1.5-3.3-2.6-4.6c-1.1-1.3-2.4-2.3-4.1-3
				C312.8,62.9,311.3,62.6,309.5,62.6"/>
		</defs>
		<clipPath id="SVGID_38_">
			<use xlink:href="#SVGID_37_"  style="overflow:visible;"/>
		</clipPath>
		<g class="st18">
			<defs>
				<rect id="SVGID_39_" x="-161.7" y="-95.7" width="750" height="394"/>
			</defs>
			<clipPath id="SVGID_40_">
				<use xlink:href="#SVGID_39_"  style="overflow:visible;"/>
			</clipPath>
			<rect x="264.3" y="28.3" class="st19" width="92" height="98"/>
		</g>
	</g>
	<g>
		<defs>
			<path id="SVGID_41_" d="M374.7,45c1.5-1,3.4-1.8,5.5-2.5c2.1-0.7,4.4-1.2,6.9-1.5c2.5-0.3,5-0.4,7.7-0.2c2.7,0.2,5.3,0.6,7.8,1.3
				c2.6,0.7,5,1.7,7.3,3.1c2.3,1.3,4.4,3,6.3,5l-8,14.3c-1.9-1.6-4-2.8-6.2-3.7c-2.2-0.9-4.5-1.4-6.8-1.7c-2.3-0.3-4.5-0.3-6.7-0.1
				c-2.2,0.2-4.2,0.6-6,1.2c-1.8,0.6-3.4,1.4-4.7,2.3c-1.3,0.9-2.2,2-2.7,3.1l0.6,48.6h-19.5c0-1.5,0.1-3.5,0.1-6.2v-9.1V88.1V76.3
				V64.6c0-3.8,0-7.4,0-10.6c0-3.2,0-6,0-8.4v-5.3h18.6L374.7,45z"/>
		</defs>
		<clipPath id="SVGID_42_">
			<use xlink:href="#SVGID_41_"  style="overflow:visible;"/>
		</clipPath>
		<g class="st20">
			<defs>
				<rect id="SVGID_43_" x="-161.7" y="-95.7" width="750" height="394"/>
			</defs>
			<clipPath id="SVGID_44_">
				<use xlink:href="#SVGID_43_"  style="overflow:visible;"/>
			</clipPath>
			<rect x="346.3" y="30.3" class="st21" width="80" height="94"/>
		</g>
	</g>
	<g>
		<defs>
			<path id="SVGID_45_" d="M379.5,118.3h-27.2l0.1-4c0-1.4,0.1-3.4,0.1-6V65.9c0-3.7,0-7.2,0-10.3c0-3.2,0-5.9,0-8.2v-9h26.2
				l-0.1,2.4c0.1,0,0.1,0,0.2-0.1c2.3-0.8,4.9-1.3,7.6-1.6c2.6-0.3,5.4-0.4,8.3-0.2c2.9,0.2,5.8,0.7,8.5,1.4
				c2.8,0.8,5.5,1.9,8.1,3.3c2.6,1.5,5.1,3.4,7.2,5.7l1.9,2.1l-11.6,20.4l-3.5-2.9c-1.5-1.3-3.2-2.3-5-2.9c-1.9-0.7-3.9-1.2-5.8-1.5
				c-1.9-0.2-3.9-0.3-5.7-0.1c-1.9,0.2-3.6,0.5-5.1,1c-1.4,0.5-2.6,1.1-3.6,1.8c-0.4,0.3-0.8,0.6-1.1,1L379.5,118.3z M360.2,110.6
				h11.5l-0.6-44.4l0.4-0.8c0.8-1.7,2.1-3.3,4-4.6c1.6-1.1,3.5-2.1,5.6-2.8c2.1-0.7,4.3-1.2,6.8-1.4c2.4-0.2,5-0.2,7.5,0.1
				c2.5,0.3,5.1,1,7.6,1.9c1.2,0.5,2.4,1,3.5,1.6l4.4-7.7c-1-0.9-2.1-1.6-3.3-2.3c-2-1.1-4.2-2-6.4-2.6c-2.3-0.6-4.6-1-6.9-1.2
				c-2.4-0.1-4.7-0.1-6.9,0.2c-2.2,0.3-4.2,0.7-6.1,1.3c-1.8,0.6-3.4,1.3-4.6,2.1l-6.2,3.8l0.3-7.8h-10.5v1.3c0,2.3,0,5.1,0,8.2
				c0,3.2,0,6.6,0,10.4v42.5C360.2,109.2,360.2,109.9,360.2,110.6z"/>
		</defs>
		<clipPath id="SVGID_46_">
			<use xlink:href="#SVGID_45_"  style="overflow:visible;"/>
		</clipPath>
		<g class="st22">
			<defs>
				<rect id="SVGID_47_" x="-161.7" y="-95.7" width="750" height="394"/>
			</defs>
			<clipPath id="SVGID_48_">
				<use xlink:href="#SVGID_47_"  style="overflow:visible;"/>
			</clipPath>
			<rect x="342.3" y="28.3" class="st23" width="88" height="100"/>
		</g>
	</g>
	<g>
		<defs>
			<path id="SVGID_49_" d="M96,28.3c-2.6,0.1-4.7-0.4-6.4-1.3c-1.7-1-3-2.2-3.9-3.6c-0.9-1.5-1.3-3.1-1.4-4.8c0-1.7,0.4-3.4,1.2-4.9
				c0.8-1.5,2.1-2.8,3.7-3.8c1.7-1,3.8-1.5,6.3-1.5c2.3,0,4.2,0.5,5.8,1.4c1.6,1,2.8,2.2,3.6,3.6c0.8,1.5,1.3,3.1,1.3,4.7
				c0.1,1.7-0.3,3.3-1,4.8c-0.7,1.5-1.9,2.7-3.4,3.8C100.3,27.7,98.4,28.2,96,28.3"/>
		</defs>
		<clipPath id="SVGID_50_">
			<use xlink:href="#SVGID_49_"  style="overflow:visible;"/>
		</clipPath>
		<g class="st24">
			<defs>
				<rect id="SVGID_51_" x="-161.7" y="-95.7" width="750" height="394"/>
			</defs>
			<clipPath id="SVGID_52_">
				<use xlink:href="#SVGID_51_"  style="overflow:visible;"/>
			</clipPath>
			<rect x="74.3" y="-1.7" class="st25" width="42" height="40"/>
		</g>
	</g>
	<g>
		<defs>
			<path id="SVGID_53_" d="M96.5,32.3c-2.9,0-5.4-0.6-7.5-1.9c-2.1-1.3-3.8-3-4.9-5.1c-1.1-2.1-1.7-4.3-1.7-6.7
				c0-2.4,0.5-4.7,1.5-6.7c1.1-2.1,2.7-3.9,4.8-5.3c2.2-1.4,4.8-2.2,7.9-2.2c2.9,0,5.4,0.7,7.5,2.1c2,1.3,3.6,3,4.6,5.1
				c1.1,2,1.6,4.2,1.7,6.5c0.1,2.3-0.4,4.5-1.3,6.6c-1,2.1-2.4,3.9-4.4,5.3c-2,1.5-4.6,2.3-7.6,2.4l0,0
				C96.8,32.3,96.6,32.3,96.5,32.3 M96.5,11.9c-1.6,0-2.9,0.3-3.8,0.9c-1,0.7-1.7,1.5-2.2,2.4c-0.5,1-0.7,2-0.7,3.2
				c0,1.1,0.3,2.2,0.8,3.1c0.5,0.9,1.3,1.7,2.3,2.3c1,0.6,2.3,0.9,4,0.8c1.5,0,2.6-0.4,3.5-1c0.9-0.6,1.5-1.4,1.9-2.3
				c0.4-1,0.6-2,0.6-3.2c0-1.1-0.3-2.2-0.8-3.2c-0.5-0.9-1.2-1.7-2.1-2.3C99,12.2,97.9,11.9,96.5,11.9"/>
		</defs>
		<clipPath id="SVGID_54_">
			<use xlink:href="#SVGID_53_"  style="overflow:visible;"/>
		</clipPath>
		<g class="st26">
			<defs>
				<rect id="SVGID_55_" x="-161.7" y="-95.7" width="750" height="394"/>
			</defs>
			<clipPath id="SVGID_56_">
				<use xlink:href="#SVGID_55_"  style="overflow:visible;"/>
			</clipPath>
			<rect x="72.3" y="-5.7" class="st27" width="48" height="48"/>
		</g>
	</g>
</g>
</svg>
